HIERARCHY
ROOT Hips
{
	OFFSET	0.00	0.00	0.00
	CHANNELS 6 Xposition Yposition Zposition Zrotation Xrotation Yrotation
	JOINT LeftUpLeg
	{
		OFFSET	 0.126116	-0.014019	-0.065224
		CHANNELS 3 Zrotation Xrotation Yrotation
		JOINT LeftLeg
		{
			OFFSET	 0.000000	 0.000000	 0.569914
			CHANNELS 3 Zrotation Xrotation Yrotation
			JOINT LeftFoot
			{
				OFFSET	 0.000000	 0.000000	 0.544423
				CHANNELS 3 Zrotation Xrotation Yrotation
				JOINT LeftToeBase
				{
					OFFSET	 0.000000	 0.000000	 0.207117
					CHANNELS 3 Zrotation Xrotation Yrotation
					End Site
					{
						OFFSET	 0.000000	 0.000000	 0.207117
					}
				}
			}
		}
	}
	JOINT RightUpLeg
	{
		OFFSET	-0.124023	-0.008373	-0.065224
		CHANNELS 3 Zrotation Xrotation Yrotation
		JOINT RightLeg
		{
			OFFSET	 0.000000	 0.000000	 0.570047
			CHANNELS 3 Zrotation Xrotation Yrotation
			JOINT RightFoot
			{
				OFFSET	 0.000000	 0.000000	 0.544354
				CHANNELS 3 Zrotation Xrotation Yrotation
				JOINT RightToeBase
				{
					OFFSET	 0.000000	 0.000000	 0.207540
					CHANNELS 3 Zrotation Xrotation Yrotation
					End Site
					{
						OFFSET	 0.000000	 0.000000	 0.207540
					}
				}
			}
		}
	}
	JOINT Spine
	{
		OFFSET	 0.000184	-0.007763	 0.117403
		CHANNELS 3 Zrotation Xrotation Yrotation
		JOINT Spine1
		{
			OFFSET	 0.000000	 0.000000	 0.137269
			CHANNELS 3 Zrotation Xrotation Yrotation
			JOINT Spine2
			{
				OFFSET	 0.000000	 0.000000	 0.156879
				CHANNELS 3 Zrotation Xrotation Yrotation
				JOINT LeftShoulder
				{
					OFFSET	 0.080501	-0.002496	 0.160144
					CHANNELS 3 Zrotation Xrotation Yrotation
					JOINT LeftArm
					{
						OFFSET	 0.000000	 0.000000	 0.164363
						CHANNELS 3 Zrotation Xrotation Yrotation
						JOINT LeftForeArm
						{
							OFFSET	 0.000000	 0.000000	 0.364576
							CHANNELS 3 Zrotation Xrotation Yrotation
							JOINT LeftHand
							{
								OFFSET	 0.000000	 0.000000	 0.360812
								CHANNELS 3 Zrotation Xrotation Yrotation
								JOINT LeftHandIndex1
								{
									OFFSET	 0.000000	 0.000000	 0.086006
									CHANNELS 3 Zrotation Xrotation Yrotation
									JOINT LeftHandIndex2
									{
										OFFSET	 0.000000	 0.000000	 0.047236
										CHANNELS 3 Zrotation Xrotation Yrotation
										JOINT LeftHandIndex3
										{
											OFFSET	-0.004284	-0.000551	 0.038166
											CHANNELS 3 Zrotation Xrotation Yrotation
											End Site
											{
												OFFSET	-0.004284	-0.000551	 0.038166
											}
										}
									}
								}
							}
						}
					}
				}
				JOINT Neck
				{
					OFFSET	 0.000000	 0.000000	 0.176489
					CHANNELS 3 Zrotation Xrotation Yrotation
					JOINT Head
					{
						OFFSET	 0.000000	-0.001747	 0.077940
						CHANNELS 3 Zrotation Xrotation Yrotation
						End Site
						{
							OFFSET	 0.000000	-0.001747	 0.077940
						}
					}
				}
				JOINT RightShoulder
				{
					OFFSET	-0.080363	 0.000306	 0.159706
					CHANNELS 3 Zrotation Xrotation Yrotation
					JOINT RightArm
					{
						OFFSET	 0.000000	 0.000000	 0.164196
						CHANNELS 3 Zrotation Xrotation Yrotation
						JOINT RightForeArm
						{
							OFFSET	 0.000000	 0.000000	 0.365611
							CHANNELS 3 Zrotation Xrotation Yrotation
							JOINT RightHand
							{
								OFFSET	 0.000000	 0.000000	 0.360648
								CHANNELS 3 Zrotation Xrotation Yrotation
								JOINT RightHandIndex1
								{
									OFFSET	 0.000000	 0.000000	 0.069977
									CHANNELS 3 Zrotation Xrotation Yrotation
									JOINT RightHandIndex2
									{
										OFFSET	 0.000000	 0.000000	 0.052305
										CHANNELS 3 Zrotation Xrotation Yrotation
										JOINT RightHandIndex3
										{
											OFFSET	 0.009002	-0.000782	 0.042196
											CHANNELS 3 Zrotation Xrotation Yrotation
											End Site
											{
												OFFSET	 0.009002	-0.000782	 0.042196
											}
										}
									}
								}
							}
						}
					}
				}
			}
		}
	}
}
MOTION
Frames:    4
Frame Time: 0.03333334
 0.000294	 0.019717	 1.271173	-0.003121	 0.003426	 0.173330	-2.191872	-1.712377	 177.969500	 1.472279	-12.036160	-0.702808	-6.887241	 71.248380	 0.733954	-2.385833	 28.452760	 0.000004	 2.027999	-1.784686	-178.248200	-1.463411	-11.664810	 0.667992	 6.565160	 70.905170	-0.589265	 2.384658	 28.388730	 0.000004	-4.772300	 2.702679	 0.299112	-2.161743	 3.734889	-0.807093	 6.544428	-4.586057	 1.414446	-91.776240	 78.527430	-180.000000	 56.381030	 39.455460	-61.255330	-8.457327	 0.191020	-0.600005	-30.500590	-11.774120	-4.487965	-2.635965	 4.993658	 6.788941	-5.165319	 0.784187	 3.516649	-5.225038	 0.466231	 0.424329	-0.000002	-3.783157	-0.089647	 6.367587	 4.588517	-0.255385	 89.782120	 78.203920	 180.000000	-64.079440	 41.949440	 56.866130	 8.038926	 3.890741	 8.913507	 30.851160	-12.521850	 9.160854	 6.112037	 4.509576	-0.364401	 4.968462	 1.518543	-9.347576	 5.168945	 0.703820	 2.021906
 0.000296	 0.019717	 1.271217	-0.003001	 0.003639	 0.173811	-2.104778	-1.715070	 177.962600	 1.472309	-12.033290	-0.702635	-6.886683	 71.241620	 0.733591	-2.385833	 28.452760	 0.000004	 1.940694	-1.785863	-178.242400	-1.463473	-11.659760	 0.667695	 6.563463	 70.897530	-0.587490	 2.384658	 28.388730	 0.000004	-5.116293	 2.678342	 0.295380	-2.159773	 3.819177	-0.800155	 6.538033	-4.694935	 1.420295	-91.776190	 78.527450	-180.000000	 56.391220	 39.452610	-61.198140	-8.665580	 0.193979	-0.694604	-30.689110	-12.152250	-4.529058	-2.635965	 4.993658	 6.788941	-5.165319	 0.784187	 3.516649	-5.225038	 0.466231	 0.424329	-0.000002	-3.783157	-0.089647	 6.356943	 4.538425	-0.252171	 89.782130	 78.203870	 180.000000	-63.878850	 41.842900	 57.180880	 8.099292	 3.855377	 8.903193	 30.997080	-12.956300	 9.166309	 6.112037	 4.509576	-0.364401	 4.968462	 1.518543	-9.347576	 5.168945	 0.703820	 2.021906
 0.000299	 0.019718	 1.271285	-0.002851	 0.003933	 0.174267	-1.986818	-1.718258	 177.953300	 1.472376	-12.028400	-0.702339	-6.885616	 71.231900	 0.732806	-2.385833	 28.452760	 0.000004	 1.822575	-1.787551	-178.234600	-1.463553	-11.653080	 0.667303	 6.561176	 70.887270	-0.585066	 2.384658	 28.388730	 0.000004	-5.585875	 2.645458	 0.290160	-2.154998	 3.933055	-0.789991	 6.522933	-4.842483	 1.426780	-91.776240	 78.527430	-180.000000	 56.398490	 39.450660	-61.112330	-8.952130	 0.199236	-0.825103	-30.949680	-12.671390	-4.589502	-2.635965	 4.993658	 6.788941	-5.165319	 0.784187	 3.516649	-5.225038	 0.466231	 0.424329	-0.000002	-3.783157	-0.089647	 6.336286	 4.471521	-0.247641	 89.782140	 78.203900	 180.000000	-63.602370	 41.647620	 57.844650	 8.164513	 3.703343	 8.666016	 31.236780	-13.592970	 9.159375	 6.112037	 4.509576	-0.364401	 4.968462	 1.518543	-9.347576	 5.168945	 0.703820	 2.021906
 0.000302	 0.019719	 1.271360	-0.002686	 0.004229	 0.174537	-1.870284	-1.721360	 177.944300	 1.472439	-12.023380	-0.702038	-6.884515	 71.222180	 0.732017	-2.385833	 28.452760	 0.000004	 1.705927	-1.789431	-178.226700	-1.463624	-11.646910	 0.666939	 6.558980	 70.877380	-0.582705	 2.384658	 28.388730	 0.000004	-6.055857	 2.613045	 0.284799	-2.147902	 4.045299	-0.779100	 6.500751	-4.988373	 1.431525	-91.776180	 78.527490	 180.000000	 56.398190	 39.450060	-61.017160	-9.241146	 0.206317	-0.958140	-31.214060	-13.193210	-4.655145	-2.635965	 4.993658	 6.788941	-5.165319	 0.784187	 3.516649	-5.225038	 0.466231	 0.424329	-0.000002	-3.783157	-0.089647	 6.308813	 4.406455	-0.242973	 89.782110	 78.203900	 180.000000	-63.322490	 41.293360	 58.634430	 8.126179	 3.546137	 8.455685	 31.589270	-14.353950	 9.100256	 6.112037	 4.509576	-0.364401	 4.968462	 1.518543	-9.347576	 5.168945	 0.703820	 2.021906
